<svg width="25" height="15" viewBox="0 0 25 15" fill="none" xmlns="http://www.w3.org/2000/svg">
<rect width="25" height="15" rx="2" fill="white"/>
<mask id="mask0_119_2487" style="mask-type:alpha" maskUnits="userSpaceOnUse" x="0" y="0" width="25" height="15">
<rect width="25" height="15" rx="2" fill="white"/>
</mask>
<g mask="url(#mask0_119_2487)">
<path fill-rule="evenodd" clip-rule="evenodd" d="M25 0H0V1H25V0ZM25 2.00012H0V3.00012H25V2.00012ZM0 4H25V5H0V4ZM25 6H0V7H25V6ZM0 7.99988H25V8.99988H0V7.99988ZM25 10H0V11H25V10ZM0 12.0001H25V13.0001H0V12.0001ZM25 14H0V15H25V14Z" fill="#D02F44"/>
<rect width="10.7143" height="7" fill="#46467F"/>
<g filter="url(#filter0_d_119_2487)">
<path fill-rule="evenodd" clip-rule="evenodd" d="M2.38103 1.5C2.38103 1.77614 2.11453 2 1.78579 2C1.45705 2 1.19055 1.77614 1.19055 1.5C1.19055 1.22386 1.45705 1 1.78579 1C2.11453 1 2.38103 1.22386 2.38103 1.5ZM4.76198 1.5C4.76198 1.77614 4.49548 2 4.16674 2C3.838 2 3.5715 1.77614 3.5715 1.5C3.5715 1.22386 3.838 1 4.16674 1C4.49548 1 4.76198 1.22386 4.76198 1.5ZM6.54769 2C6.87644 2 7.14293 1.77614 7.14293 1.5C7.14293 1.22386 6.87644 1 6.54769 1C6.21895 1 5.95246 1.22386 5.95246 1.5C5.95246 1.77614 6.21895 2 6.54769 2ZM9.52389 1.5C9.52389 1.77614 9.25739 2 8.92865 2C8.59991 2 8.33341 1.77614 8.33341 1.5C8.33341 1.22386 8.59991 1 8.92865 1C9.25739 1 9.52389 1.22386 9.52389 1.5ZM2.97636 3.00006C3.3051 3.00006 3.5716 2.7762 3.5716 2.50006C3.5716 2.22392 3.3051 2.00006 2.97636 2.00006C2.64762 2.00006 2.38112 2.22392 2.38112 2.50006C2.38112 2.7762 2.64762 3.00006 2.97636 3.00006ZM5.95254 2.50006C5.95254 2.7762 5.68604 3.00006 5.3573 3.00006C5.02856 3.00006 4.76206 2.7762 4.76206 2.50006C4.76206 2.22392 5.02856 2.00006 5.3573 2.00006C5.68604 2.00006 5.95254 2.22392 5.95254 2.50006ZM7.73817 3C8.06691 3 8.33341 2.77614 8.33341 2.5C8.33341 2.22386 8.06691 2 7.73817 2C7.40943 2 7.14293 2.22386 7.14293 2.5C7.14293 2.77614 7.40943 3 7.73817 3ZM9.52389 3.50012C9.52389 3.77626 9.25739 4.00012 8.92865 4.00012C8.59991 4.00012 8.33341 3.77626 8.33341 3.50012C8.33341 3.22398 8.59991 3.00012 8.92865 3.00012C9.25739 3.00012 9.52389 3.22398 9.52389 3.50012ZM6.54762 4.00012C6.87636 4.00012 7.14286 3.77626 7.14286 3.50012C7.14286 3.22398 6.87636 3.00012 6.54762 3.00012C6.21888 3.00012 5.95238 3.22398 5.95238 3.50012C5.95238 3.77626 6.21888 4.00012 6.54762 4.00012ZM4.76197 3.50012C4.76197 3.77626 4.49547 4.00012 4.16673 4.00012C3.83799 4.00012 3.5715 3.77626 3.5715 3.50012C3.5715 3.22398 3.83799 3.00012 4.16673 3.00012C4.49547 3.00012 4.76197 3.22398 4.76197 3.50012ZM1.78579 4.00012C2.11453 4.00012 2.38103 3.77626 2.38103 3.50012C2.38103 3.22398 2.11453 3.00012 1.78579 3.00012C1.45705 3.00012 1.19055 3.22398 1.19055 3.50012C1.19055 3.77626 1.45705 4.00012 1.78579 4.00012ZM3.57143 4.49988C3.57143 4.77602 3.30493 4.99988 2.97619 4.99988C2.64745 4.99988 2.38096 4.77602 2.38096 4.49988C2.38096 4.22374 2.64745 3.99988 2.97619 3.99988C3.30493 3.99988 3.57143 4.22374 3.57143 4.49988ZM5.3573 4.99988C5.68604 4.99988 5.95254 4.77602 5.95254 4.49988C5.95254 4.22374 5.68604 3.99988 5.3573 3.99988C5.02856 3.99988 4.76206 4.22374 4.76206 4.49988C4.76206 4.77602 5.02856 4.99988 5.3573 4.99988ZM8.33348 4.49988C8.33348 4.77602 8.06698 4.99988 7.73824 4.99988C7.4095 4.99988 7.14301 4.77602 7.14301 4.49988C7.14301 4.22374 7.4095 3.99988 7.73824 3.99988C8.06698 3.99988 8.33348 4.22374 8.33348 4.49988ZM8.92865 6C9.25739 6 9.52389 5.77614 9.52389 5.5C9.52389 5.22386 9.25739 5 8.92865 5C8.59991 5 8.33341 5.22386 8.33341 5.5C8.33341 5.77614 8.59991 6 8.92865 6ZM7.14293 5.5C7.14293 5.77614 6.87644 6 6.54769 6C6.21895 6 5.95246 5.77614 5.95246 5.5C5.95246 5.22386 6.21895 5 6.54769 5C6.87644 5 7.14293 5.22386 7.14293 5.5ZM4.16674 6C4.49548 6 4.76198 5.77614 4.76198 5.5C4.76198 5.22386 4.49548 5 4.16674 5C3.838 5 3.5715 5.22386 3.5715 5.5C3.5715 5.77614 3.838 6 4.16674 6ZM2.38103 5.5C2.38103 5.77614 2.11453 6 1.78579 6C1.45705 6 1.19055 5.77614 1.19055 5.5C1.19055 5.22386 1.45705 5 1.78579 5C2.11453 5 2.38103 5.22386 2.38103 5.5Z" fill="url(#paint0_linear_119_2487)"/>
</g>
</g>
<defs>
<filter id="filter0_d_119_2487" x="1.19055" y="1" width="8.33331" height="6" filterUnits="userSpaceOnUse" color-interpolation-filters="sRGB">
<feFlood flood-opacity="0" result="BackgroundImageFix"/>
<feColorMatrix in="SourceAlpha" type="matrix" values="0 0 0 0 0 0 0 0 0 0 0 0 0 0 0 0 0 0 127 0" result="hardAlpha"/>
<feOffset dy="1"/>
<feColorMatrix type="matrix" values="0 0 0 0 0 0 0 0 0 0 0 0 0 0 0 0 0 0 0.06 0"/>
<feBlend mode="normal" in2="BackgroundImageFix" result="effect1_dropShadow_119_2487"/>
<feBlend mode="normal" in="SourceGraphic" in2="effect1_dropShadow_119_2487" result="shape"/>
</filter>
<linearGradient id="paint0_linear_119_2487" x1="1.19055" y1="1" x2="1.19055" y2="6" gradientUnits="userSpaceOnUse">
<stop stop-color="white"/>
<stop offset="1" stop-color="#F0F0F0"/>
</linearGradient>
</defs>
</svg>
