<svg width="25" height="15" viewBox="0 0 25 15" fill="none" xmlns="http://www.w3.org/2000/svg">
<rect width="25" height="15" rx="2" fill="white"/>
<mask id="mask0_119_2478" style="mask-type:alpha" maskUnits="userSpaceOnUse" x="0" y="0" width="25" height="15">
<rect width="25" height="15" rx="2" fill="white"/>
</mask>
<g mask="url(#mask0_119_2478)">
<rect width="25" height="15" fill="#05AB41"/>
<path fill-rule="evenodd" clip-rule="evenodd" d="M3.45858 8.08586C2.99418 7.83344 2.99417 7.1668 3.45858 6.91438L12.1816 2.17316C12.3801 2.06526 12.6198 2.06526 12.8183 2.17316L21.5414 6.91438C22.0058 7.1668 22.0058 7.83344 21.5414 8.08586L12.8183 12.8271C12.6198 12.935 12.3801 12.935 12.1816 12.8271L3.45858 8.08586Z" fill="#FDD216"/>
<path fill-rule="evenodd" clip-rule="evenodd" d="M12.5 11C14.8012 11 16.6666 9.43299 16.6666 7.5C16.6666 5.567 14.8012 4 12.5 4C10.1988 4 8.33331 5.567 8.33331 7.5C8.33331 9.43299 10.1988 11 12.5 11Z" fill="#053087"/>
<mask id="mask1_119_2478" style="mask-type:alpha" maskUnits="userSpaceOnUse" x="8" y="4" width="9" height="7">
<path fill-rule="evenodd" clip-rule="evenodd" d="M12.5 11C14.8012 11 16.6666 9.43299 16.6666 7.5C16.6666 5.567 14.8012 4 12.5 4C10.1988 4 8.33331 5.567 8.33331 7.5C8.33331 9.43299 10.1988 11 12.5 11Z" fill="white"/>
</mask>
<g mask="url(#mask1_119_2478)">
<path d="M7.83925 6.58518C8.49344 6.14019 10.6045 6.56174 12.5751 7.0033C14.5457 7.44485 16.6009 8.37036 17.1242 8.91319" stroke="white" stroke-width="1.33333" stroke-linecap="square"/>
</g>
</g>
</svg>
